<svg width="128" height="57" viewBox="0 0 128 57" fill="none" xmlns="http://www.w3.org/2000/svg">
<path d="M8.302 44.928H4.76V54H3.78V44.928H0.238V44.06H8.302V44.928ZM15.7269 54H14.7749V49.926C14.7749 49.1047 14.6303 48.4887 14.3409 48.078C14.0516 47.658 13.6363 47.448 13.0949 47.448C12.7403 47.448 12.3856 47.5413 12.0309 47.728C11.6856 47.9053 11.3776 48.1527 11.1069 48.47C10.8456 48.778 10.6589 49.1327 10.5469 49.534V54H9.59492V43.78H10.5469V48.358C10.8363 47.8167 11.2376 47.3873 11.7509 47.07C12.2736 46.7433 12.8289 46.58 13.4169 46.58C13.8369 46.58 14.1916 46.6547 14.4809 46.804C14.7796 46.9533 15.0176 47.1727 15.1949 47.462C15.3816 47.742 15.5169 48.0733 15.6009 48.456C15.6849 48.8293 15.7269 49.254 15.7269 49.73V54ZM20.907 54.14C20.3844 54.14 19.899 54.042 19.451 53.846C19.003 53.6407 18.6157 53.3653 18.289 53.02C17.9624 52.6653 17.7057 52.2593 17.519 51.802C17.3417 51.3447 17.253 50.8547 17.253 50.332C17.253 49.6507 17.407 49.0253 17.715 48.456C18.0324 47.8867 18.4664 47.434 19.017 47.098C19.5677 46.7527 20.193 46.58 20.893 46.58C21.6117 46.58 22.237 46.7527 22.769 47.098C23.3104 47.4433 23.735 47.9007 24.043 48.47C24.351 49.03 24.505 49.646 24.505 50.318C24.505 50.3927 24.505 50.4673 24.505 50.542C24.505 50.6073 24.5004 50.6587 24.491 50.696H18.247C18.2937 51.2187 18.4384 51.6853 18.681 52.096C18.933 52.4973 19.255 52.8193 19.647 53.062C20.0484 53.2953 20.4824 53.412 20.949 53.412C21.425 53.412 21.873 53.2907 22.293 53.048C22.7224 52.8053 23.021 52.488 23.189 52.096L24.015 52.32C23.8657 52.6653 23.637 52.978 23.329 53.258C23.021 53.538 22.657 53.7573 22.237 53.916C21.8264 54.0653 21.383 54.14 20.907 54.14ZM18.219 50.01H23.609C23.5717 49.478 23.427 49.0113 23.175 48.61C22.9324 48.2087 22.6104 47.896 22.209 47.672C21.817 47.4387 21.383 47.322 20.907 47.322C20.431 47.322 19.997 47.4387 19.605 47.672C19.213 47.896 18.891 48.2133 18.639 48.624C18.3964 49.0253 18.2564 49.4873 18.219 50.01ZM32.3807 44.06H33.2067L37.3367 54H36.3007L35.0127 50.892H30.5467L29.2727 54H28.2227L32.3807 44.06ZM34.7887 50.122L32.7867 45.208L30.7567 50.122H34.7887ZM38.3452 50.99V46.706H39.2972V50.822C39.2972 51.6527 39.4372 52.2733 39.7172 52.684C40.0066 53.0947 40.4312 53.3 40.9912 53.3C41.3646 53.3 41.7239 53.2207 42.0692 53.062C42.4239 52.894 42.7366 52.6607 43.0072 52.362C43.2779 52.054 43.4832 51.6993 43.6232 51.298V46.706H44.5752V52.852C44.5752 52.9827 44.6032 53.0807 44.6592 53.146C44.7152 53.202 44.7992 53.2347 44.9112 53.244V54C44.7992 54.0093 44.7106 54.014 44.6452 54.014C44.5799 54.0233 44.5192 54.028 44.4632 54.028C44.2766 54.0093 44.1132 53.9347 43.9732 53.804C43.8426 53.6733 43.7726 53.5147 43.7632 53.328L43.7352 52.348C43.4179 52.908 42.9839 53.3467 42.4332 53.664C41.8919 53.9813 41.3039 54.14 40.6692 54.14C39.9039 54.14 39.3252 53.874 38.9332 53.342C38.5412 52.81 38.3452 52.026 38.3452 50.99ZM46.2377 50.374C46.2377 49.6833 46.3777 49.0533 46.6577 48.484C46.9471 47.9053 47.3437 47.4433 47.8477 47.098C48.3517 46.7527 48.9257 46.58 49.5697 46.58C50.1764 46.58 50.7177 46.7433 51.1937 47.07C51.6791 47.3873 52.0571 47.7747 52.3277 48.232V43.78H53.2797V52.852C53.2797 52.9827 53.3077 53.0807 53.3637 53.146C53.4197 53.202 53.5037 53.2347 53.6157 53.244V54C53.4291 54.028 53.2844 54.0373 53.1817 54.028C52.9857 54.0187 52.8131 53.9393 52.6637 53.79C52.5144 53.6407 52.4397 53.4773 52.4397 53.3V52.586C52.1504 53.062 51.7584 53.44 51.2637 53.72C50.7691 54 50.2557 54.14 49.7237 54.14C49.2197 54.14 48.7531 54.0373 48.3237 53.832C47.9037 53.6267 47.5351 53.3467 47.2177 52.992C46.9097 52.6373 46.6671 52.236 46.4897 51.788C46.3217 51.3307 46.2377 50.8593 46.2377 50.374ZM52.3277 51.494V49.24C52.2064 48.904 52.0104 48.6007 51.7397 48.33C51.4691 48.05 51.1611 47.8307 50.8157 47.672C50.4797 47.504 50.1437 47.42 49.8077 47.42C49.4157 47.42 49.0611 47.504 48.7437 47.672C48.4264 47.8307 48.1511 48.05 47.9177 48.33C47.6937 48.61 47.5211 48.9273 47.3997 49.282C47.2784 49.6367 47.2177 50.0007 47.2177 50.374C47.2177 50.766 47.2831 51.1393 47.4137 51.494C47.5537 51.8487 47.7497 52.166 48.0017 52.446C48.2537 52.7167 48.5431 52.9267 48.8697 53.076C49.1964 53.2253 49.5511 53.3 49.9337 53.3C50.1764 53.3 50.4284 53.2533 50.6897 53.16C50.9511 53.0667 51.1984 52.9407 51.4317 52.782C51.6744 52.614 51.8751 52.418 52.0337 52.194C52.1924 51.97 52.2904 51.7367 52.3277 51.494ZM55.4367 54V46.706H56.3887V54H55.4367ZM55.4367 45.18V43.78H56.3887V45.18H55.4367ZM61.6355 54.14C61.1129 54.14 60.6275 54.042 60.1795 53.846C59.7315 53.6407 59.3442 53.3653 59.0175 53.02C58.6909 52.6653 58.4342 52.2593 58.2475 51.802C58.0702 51.3447 57.9815 50.8547 57.9815 50.332C57.9815 49.6507 58.1355 49.0253 58.4435 48.456C58.7609 47.8867 59.1949 47.434 59.7455 47.098C60.2962 46.7527 60.9215 46.58 61.6215 46.58C62.3402 46.58 62.9655 46.7527 63.4975 47.098C64.0389 47.4433 64.4635 47.9007 64.7715 48.47C65.0795 49.03 65.2335 49.646 65.2335 50.318C65.2335 50.3927 65.2335 50.4673 65.2335 50.542C65.2335 50.6073 65.2289 50.6587 65.2195 50.696H58.9755C59.0222 51.2187 59.1669 51.6853 59.4095 52.096C59.6615 52.4973 59.9835 52.8193 60.3755 53.062C60.7769 53.2953 61.2109 53.412 61.6775 53.412C62.1535 53.412 62.6015 53.2907 63.0215 53.048C63.4509 52.8053 63.7495 52.488 63.9175 52.096L64.7435 52.32C64.5942 52.6653 64.3655 52.978 64.0575 53.258C63.7495 53.538 63.3855 53.7573 62.9655 53.916C62.5549 54.0653 62.1115 54.14 61.6355 54.14ZM58.9475 50.01H64.3375C64.3002 49.478 64.1555 49.0113 63.9035 48.61C63.6609 48.2087 63.3389 47.896 62.9375 47.672C62.5455 47.4387 62.1115 47.322 61.6355 47.322C61.1595 47.322 60.7255 47.4387 60.3335 47.672C59.9415 47.896 59.6195 48.2133 59.3675 48.624C59.1249 49.0253 58.9849 49.4873 58.9475 50.01ZM72.8343 54H71.8823V49.926C71.8823 49.0673 71.7563 48.442 71.5043 48.05C71.2523 47.6487 70.8557 47.448 70.3143 47.448C69.941 47.448 69.5723 47.5413 69.2083 47.728C68.8443 47.9053 68.5223 48.1527 68.2423 48.47C67.9717 48.778 67.7757 49.1327 67.6543 49.534V54H66.7023V46.706H67.5703V48.358C67.7663 48.0033 68.023 47.6953 68.3403 47.434C68.6577 47.1633 69.017 46.9533 69.4183 46.804C69.8197 46.6547 70.235 46.58 70.6643 46.58C71.0657 46.58 71.4063 46.6547 71.6863 46.804C71.9663 46.9533 72.1903 47.168 72.3583 47.448C72.5263 47.7187 72.6477 48.05 72.7223 48.442C72.797 48.8247 72.8343 49.254 72.8343 49.73V54ZM78.0285 54.14C77.4965 54.14 77.0065 54.042 76.5585 53.846C76.1198 53.6407 75.7325 53.3607 75.3965 53.006C75.0698 52.6513 74.8131 52.2453 74.6265 51.788C74.4491 51.3307 74.3605 50.8453 74.3605 50.332C74.3605 49.6413 74.5145 49.0113 74.8225 48.442C75.1305 47.8727 75.5598 47.42 76.1105 47.084C76.6611 46.748 77.2958 46.58 78.0145 46.58C78.6958 46.58 79.2978 46.7387 79.8205 47.056C80.3431 47.364 80.7305 47.784 80.9825 48.316L80.0585 48.61C79.8531 48.2367 79.5638 47.9473 79.1905 47.742C78.8265 47.5273 78.4205 47.42 77.9725 47.42C77.4871 47.42 77.0438 47.546 76.6425 47.798C76.2411 48.05 75.9191 48.3953 75.6765 48.834C75.4431 49.2727 75.3265 49.772 75.3265 50.332C75.3265 50.8827 75.4478 51.382 75.6905 51.83C75.9331 52.278 76.2551 52.6373 76.6565 52.908C77.0578 53.1693 77.5011 53.3 77.9865 53.3C78.3038 53.3 78.6071 53.244 78.8965 53.132C79.1951 53.02 79.4518 52.8707 79.6665 52.684C79.8905 52.488 80.0398 52.278 80.1145 52.054L81.0525 52.334C80.9218 52.6793 80.7025 52.992 80.3945 53.272C80.0958 53.5427 79.7411 53.7573 79.3305 53.916C78.9291 54.0653 78.4951 54.14 78.0285 54.14ZM85.6297 54.14C85.107 54.14 84.6217 54.042 84.1737 53.846C83.7257 53.6407 83.3384 53.3653 83.0117 53.02C82.685 52.6653 82.4284 52.2593 82.2417 51.802C82.0644 51.3447 81.9757 50.8547 81.9757 50.332C81.9757 49.6507 82.1297 49.0253 82.4377 48.456C82.755 47.8867 83.189 47.434 83.7397 47.098C84.2904 46.7527 84.9157 46.58 85.6157 46.58C86.3344 46.58 86.9597 46.7527 87.4917 47.098C88.033 47.4433 88.4577 47.9007 88.7657 48.47C89.0737 49.03 89.2277 49.646 89.2277 50.318C89.2277 50.3927 89.2277 50.4673 89.2277 50.542C89.2277 50.6073 89.223 50.6587 89.2137 50.696H82.9697C83.0164 51.2187 83.161 51.6853 83.4037 52.096C83.6557 52.4973 83.9777 52.8193 84.3697 53.062C84.771 53.2953 85.205 53.412 85.6717 53.412C86.1477 53.412 86.5957 53.2907 87.0157 53.048C87.445 52.8053 87.7437 52.488 87.9117 52.096L88.7377 52.32C88.5884 52.6653 88.3597 52.978 88.0517 53.258C87.7437 53.538 87.3797 53.7573 86.9597 53.916C86.549 54.0653 86.1057 54.14 85.6297 54.14ZM82.9417 50.01H88.3317C88.2944 49.478 88.1497 49.0113 87.8977 48.61C87.655 48.2087 87.333 47.896 86.9317 47.672C86.5397 47.4387 86.1057 47.322 85.6297 47.322C85.1537 47.322 84.7197 47.4387 84.3277 47.672C83.9357 47.896 83.6137 48.2133 83.3617 48.624C83.119 49.0253 82.979 49.4873 82.9417 50.01ZM100.271 45.922C100.131 45.7633 99.9675 45.6233 99.7808 45.502C99.5942 45.3713 99.3842 45.2593 99.1508 45.166C98.9175 45.0727 98.6655 44.998 98.3948 44.942C98.1335 44.886 97.8535 44.858 97.5548 44.858C96.6868 44.858 96.0475 45.026 95.6368 45.362C95.2355 45.6887 95.0348 46.1367 95.0348 46.706C95.0348 47.098 95.1282 47.406 95.3148 47.63C95.5108 47.854 95.8142 48.036 96.2248 48.176C96.6355 48.316 97.1582 48.4607 97.7928 48.61C98.5022 48.7593 99.1135 48.9367 99.6268 49.142C100.14 49.3473 100.537 49.6273 100.817 49.982C101.097 50.3273 101.237 50.7987 101.237 51.396C101.237 51.8533 101.148 52.25 100.971 52.586C100.794 52.922 100.546 53.202 100.229 53.426C99.9115 53.65 99.5335 53.818 99.0948 53.93C98.6562 54.0327 98.1755 54.084 97.6528 54.084C97.1395 54.084 96.6448 54.0327 96.1688 53.93C95.7022 53.818 95.2588 53.6593 94.8388 53.454C94.4188 53.2393 94.0268 52.9687 93.6628 52.642L94.1528 51.844C94.3302 52.0307 94.5402 52.208 94.7828 52.376C95.0348 52.5347 95.3102 52.6793 95.6088 52.81C95.9168 52.9407 96.2435 53.0433 96.5888 53.118C96.9435 53.1833 97.3075 53.216 97.6808 53.216C98.4742 53.216 99.0902 53.0713 99.5288 52.782C99.9768 52.4927 100.201 52.0633 100.201 51.494C100.201 51.0833 100.089 50.7567 99.8648 50.514C99.6408 50.262 99.3048 50.0567 98.8568 49.898C98.4088 49.7393 97.8582 49.5853 97.2048 49.436C96.5142 49.2773 95.9308 49.1 95.4548 48.904C94.9788 48.708 94.6195 48.4513 94.3768 48.134C94.1435 47.8073 94.0268 47.378 94.0268 46.846C94.0268 46.23 94.1762 45.712 94.4748 45.292C94.7828 44.8627 95.2028 44.5407 95.7348 44.326C96.2668 44.102 96.8782 43.99 97.5688 43.99C98.0075 43.99 98.4135 44.0367 98.7868 44.13C99.1695 44.214 99.5195 44.34 99.8368 44.508C100.164 44.676 100.467 44.886 100.747 45.138L100.271 45.922ZM106.146 53.65C106.071 53.678 105.954 53.7293 105.796 53.804C105.637 53.8787 105.446 53.944 105.222 54C104.998 54.056 104.755 54.084 104.494 54.084C104.223 54.084 103.966 54.0327 103.724 53.93C103.49 53.8273 103.304 53.6733 103.164 53.468C103.024 53.2533 102.954 52.992 102.954 52.684V47.462H101.946V46.706H102.954V44.242H103.906V46.706H105.586V47.462H103.906V52.418C103.924 52.6793 104.018 52.8753 104.186 53.006C104.363 53.1367 104.564 53.202 104.788 53.202C105.049 53.202 105.287 53.16 105.502 53.076C105.716 52.9827 105.847 52.9173 105.894 52.88L106.146 53.65ZM110.32 54.14C109.797 54.14 109.312 54.042 108.864 53.846C108.425 53.6407 108.043 53.3653 107.716 53.02C107.399 52.6653 107.151 52.264 106.974 51.816C106.797 51.3587 106.708 50.878 106.708 50.374C106.708 49.8513 106.797 49.366 106.974 48.918C107.151 48.4607 107.403 48.0593 107.73 47.714C108.057 47.3593 108.439 47.084 108.878 46.888C109.326 46.6827 109.811 46.58 110.334 46.58C110.857 46.58 111.337 46.6827 111.776 46.888C112.215 47.084 112.597 47.3593 112.924 47.714C113.251 48.0593 113.503 48.4607 113.68 48.918C113.857 49.366 113.946 49.8513 113.946 50.374C113.946 50.878 113.857 51.3587 113.68 51.816C113.503 52.264 113.251 52.6653 112.924 53.02C112.607 53.3653 112.224 53.6407 111.776 53.846C111.337 54.042 110.852 54.14 110.32 54.14ZM107.674 50.388C107.674 50.9293 107.791 51.424 108.024 51.872C108.267 52.3107 108.589 52.6607 108.99 52.922C109.391 53.174 109.835 53.3 110.32 53.3C110.805 53.3 111.249 53.1693 111.65 52.908C112.051 52.6467 112.373 52.292 112.616 51.844C112.859 51.3867 112.98 50.892 112.98 50.36C112.98 49.8187 112.859 49.324 112.616 48.876C112.373 48.428 112.051 48.0733 111.65 47.812C111.249 47.5507 110.805 47.42 110.32 47.42C109.835 47.42 109.391 47.5553 108.99 47.826C108.598 48.0967 108.281 48.456 108.038 48.904C107.795 49.3427 107.674 49.8373 107.674 50.388ZM119.178 47.546C118.544 47.5647 117.984 47.742 117.498 48.078C117.022 48.414 116.686 48.876 116.49 49.464V54H115.538V46.706H116.434V48.456C116.686 47.9427 117.018 47.5273 117.428 47.21C117.848 46.8927 118.292 46.7153 118.758 46.678C118.852 46.6687 118.931 46.664 118.996 46.664C119.071 46.664 119.132 46.6687 119.178 46.678V47.546ZM123.378 54.14C122.855 54.14 122.37 54.042 121.922 53.846C121.474 53.6407 121.086 53.3653 120.76 53.02C120.433 52.6653 120.176 52.2593 119.99 51.802C119.812 51.3447 119.724 50.8547 119.724 50.332C119.724 49.6507 119.878 49.0253 120.186 48.456C120.503 47.8867 120.937 47.434 121.488 47.098C122.038 46.7527 122.664 46.58 123.364 46.58C124.082 46.58 124.708 46.7527 125.24 47.098C125.781 47.4433 126.206 47.9007 126.514 48.47C126.822 49.03 126.976 49.646 126.976 50.318C126.976 50.3927 126.976 50.4673 126.976 50.542C126.976 50.6073 126.971 50.6587 126.962 50.696H120.718C120.764 51.2187 120.909 51.6853 121.152 52.096C121.404 52.4973 121.726 52.8193 122.118 53.062C122.519 53.2953 122.953 53.412 123.42 53.412C123.896 53.412 124.344 53.2907 124.764 53.048C125.193 52.8053 125.492 52.488 125.66 52.096L126.486 52.32C126.336 52.6653 126.108 52.978 125.8 53.258C125.492 53.538 125.128 53.7573 124.708 53.916C124.297 54.0653 123.854 54.14 123.378 54.14ZM120.69 50.01H126.08C126.042 49.478 125.898 49.0113 125.646 48.61C125.403 48.2087 125.081 47.896 124.68 47.672C124.288 47.4387 123.854 47.322 123.378 47.322C122.902 47.322 122.468 47.4387 122.076 47.672C121.684 47.896 121.362 48.2133 121.11 48.624C120.867 49.0253 120.727 49.4873 120.69 50.01Z" fill="black"/>
<path d="M43.904 7.28H49.568L57.376 30H52L50.24 24.912H43.168L41.44 30H36.064L43.904 7.28ZM49.376 21.296L46.72 12.56L44 21.296H49.376Z" fill="#1FAF90"/>
<path d="M73.3095 25.392V30H59.5175V25.392H64.0295V12.112C63.8375 12.368 63.5388 12.656 63.1335 12.976C62.7495 13.2747 62.3015 13.5733 61.7895 13.872C61.2775 14.1493 60.7548 14.384 60.2215 14.576C59.6882 14.768 59.2082 14.864 58.7815 14.864V10.16C59.3575 10.16 59.9442 10.0107 60.5415 9.712C61.1602 9.41333 61.7255 9.072 62.2375 8.688C62.7495 8.28267 63.1655 7.92 63.4855 7.6C63.8055 7.28 63.9868 7.10933 64.0295 7.088H69.2455V25.392H73.3095ZM89.872 25.392V30H76.08V25.392H80.592V12.112C80.4 12.368 80.1013 12.656 79.696 12.976C79.312 13.2747 78.864 13.5733 78.352 13.872C77.84 14.1493 77.3173 14.384 76.784 14.576C76.2507 14.768 75.7707 14.864 75.344 14.864V10.16C75.92 10.16 76.5067 10.0107 77.104 9.712C77.7227 9.41333 78.288 9.072 78.8 8.688C79.312 8.28267 79.728 7.92 80.048 7.6C80.368 7.28 80.5493 7.10933 80.592 7.088H85.808V25.392H89.872Z" fill="#114B6D"/>
</svg>
