<svg xmlns="http://www.w3.org/2000/svg" width="212" height="39" viewBox="0 0 212 39">
    <defs>
        <linearGradient id="a" x1="76.011%" x2="18.34%" y1="-6.705%" y2="128.053%">
            <stop offset="0%" stop-color="#6FB92C"/>
            <stop offset="36%" stop-color="#42A835"/>
            <stop offset="79%" stop-color="#12963F"/>
            <stop offset="100%" stop-color="#008F43"/>
        </linearGradient>
        <linearGradient id="b" x1="84.105%" x2="22.628%" y1="-40.757%" y2="115.688%">
            <stop offset="0%" stop-color="#44AF35"/>
            <stop offset="22%" stop-color="#2DA43A"/>
            <stop offset="51%" stop-color="#14983F"/>
            <stop offset="78%" stop-color="#059142"/>
            <stop offset="100%" stop-color="#008F43"/>
        </linearGradient>
    </defs>
    <g fill="none" fill-rule="nonzero">
        <path fill="#231815" d="M67.744 36.957c-1.684 0-2.478-1.053-2.478-2.748 0-1.696.69-3.009 2.452-3.009.54 0 1.074.098 1.579.287l.2-1.104a6.694 6.694 0 0 0-1.814-.27c-2.949 0-3.717 1.983-3.717 4.07 0 2.052.83 3.86 3.734 3.86a6.58 6.58 0 0 0 1.85-.27l-.13-1.12a5.705 5.705 0 0 1-1.676.304zm7.285-.792v-2.252c0-1.322-.497-1.965-2.033-1.965a5.407 5.407 0 0 0-2.129.46l.262 1a3.857 3.857 0 0 1 1.745-.46c.925 0 1.03.391 1.03.974v.391c-2.731.122-3.49.54-3.49 1.93-.02.496.175.975.533 1.32.358.343.847.518 1.342.48a1.964 1.964 0 0 0 1.745-.973c.045.343.17.67.367.956l1.02-.191a2.723 2.723 0 0 1-.392-1.67zm-1.134-.156c-.151.63-.72 1.07-1.37 1.06-.401 0-.995-.156-.995-.869s.559-.87 2.365-1.017v.826zm4.144-5.444l-1.178.296v1.313h-.96v1h.96v3.478c0 1.061.637 1.426 1.631 1.374h.55v-.87h-.349c-.506 0-.663-.208-.663-.869v-3.113h1.213v-.965h-1.204v-1.644zM83.273 32a2.622 2.622 0 0 0-1.788.722v-2.887l-1.222.182v7.905h1.204v-4.27a1.93 1.93 0 0 1 1.414-.643c.811 0 1.055.548 1.055 1.287v3.626h1.213V34c0-1.035-.401-1.974-1.884-1.974l.008-.026zm7.643 4.14v-2.227c0-1.322-.498-1.965-2.033-1.965a5.45 5.45 0 0 0-2.129.46l.262 1a3.91 3.91 0 0 1 1.745-.46c.925 0 1.038.391 1.038.974v.391c-2.74.122-3.49.54-3.49 1.93-.02.484.164.955.507 1.298.343.343.814.529 1.3.511a1.956 1.956 0 0 0 1.744-.974c.05.342.175.669.367.957l1.02-.192a2.723 2.723 0 0 1-.349-1.678l.018-.026zm-1.126-.157a1.413 1.413 0 0 1-1.378 1.06c-.401 0-.995-.156-.995-.87 0-.712.559-.869 2.373-1.016v.826zm4.729.226L93 32.104h-1.396l2.303 5.418a6.771 6.771 0 0 1-1.43 2.252l1.168.522a8.913 8.913 0 0 0 1.414-2.609c.584-1.47 1.5-4.13 1.98-5.574h-1.317c-.306 1.191-.803 2.922-1.222 4.122l.018-.026zM105.764 35.017c0 1.148-.41 2.01-1.814 2.01-1.405 0-1.815-.87-1.815-2.01v-4.739h-1.239v5.165c0 1.74 1.318 2.61 3.028 2.61 1.744 0 3.07-.87 3.07-2.61v-5.165h-1.23v4.74zm5.846-2.99a2.622 2.622 0 0 0-1.85.773 3.469 3.469 0 0 0-.192-.757l-1.099.148c.1.392.146.796.14 1.2v4.53h1.204v-4.286c.376-.391.895-.614 1.439-.618.811 0 1.056.548 1.056 1.287v3.626h1.195V34c0-1.035-.401-1.974-1.902-1.974h.009zm3.437 5.895h1.213v-5.783h-1.213v5.783zm0-6.652h1.248v-1.096h-1.248v1.096zm4.292-.679l-1.177.296V32.2h-.916v.974h.916v3.478c0 1.061.637 1.426 1.631 1.374h.55v-.87h-.34c-.507 0-.655-.208-.655-.869v-3.113h1.204v-.965h-1.204l-.009-1.618zm6.866 3.948c0-1.504-.645-2.609-2.26-2.609-1.823 0-2.765 1.374-2.765 3.166 0 1.791.873 2.982 2.932 2.982.689.013 1.373-.12 2.006-.391l-.227-.957a4.497 4.497 0 0 1-1.692.33c-.5.059-.997-.116-1.35-.473a1.623 1.623 0 0 1-.456-1.352h3.812v-.696zm-3.795-.156a1.524 1.524 0 0 1 1.405-1.53c.933 0 1.265.59 1.274 1.53h-2.679zm10.042 1.556v-6.087l-1.169.191v2.61a2.351 2.351 0 0 0-1.605-.636c-1.824 0-2.443 1.461-2.443 3.166 0 1.704.768 2.921 2.277 2.921a2.227 2.227 0 0 0 1.867-.921c.027.305.12.602.27.87l1.03-.2a5.14 5.14 0 0 1-.253-1.914h.026zm-1.125-.626c.004.266-.019.53-.07.791a1.632 1.632 0 0 1-1.492.957c-.96 0-1.309-.87-1.309-1.94 0-1.069.358-2.13 1.44-2.13a1.677 1.677 0 0 1 1.36.687c.054.287.077.578.07.87v.765zM140.714 33.835a1.652 1.652 0 0 0 1.178-1.687c0-1.53-1.274-1.87-2.565-1.87h-2.207v7.644h2.364c1.561 0 2.696-.565 2.696-2.157a1.74 1.74 0 0 0-1.466-1.93zm-2.4-2.609h.873c.977 0 1.527.304 1.527 1.087a1.067 1.067 0 0 1-1.03 1.13h-1.37v-2.217zm1.074 5.626h-1.073V34.41h1.047c1.03 0 1.579.391 1.579 1.226.008 1.087-.724 1.26-1.553 1.26v-.043zm8.445-.73v-2.209c0-1.322-.497-1.965-2.033-1.965a5.39 5.39 0 0 0-2.129.46l.262 1a3.849 3.849 0 0 1 1.745-.46c.934 0 1.038.391 1.038.974v.391c-2.73.122-3.49.54-3.49 1.93-.018.496.176.975.534 1.32.358.343.846.518 1.342.48a1.964 1.964 0 0 0 1.745-.973c.04.344.165.673.366.956l1.013-.191a2.723 2.723 0 0 1-.393-1.67v-.043zm-1.134-.157c-.151.63-.72 1.07-1.37 1.061-.401 0-.995-.156-.995-.87 0-.713.541-.869 2.365-1.017v.826zm5.714-3.991a2.622 2.622 0 0 0-1.85.774 3.469 3.469 0 0 0-.191-.757l-1.1.148c.1.392.146.796.14 1.2v4.53h1.195v-4.234c.377-.391.896-.614 1.44-.618.811 0 1.055.548 1.055 1.287v3.626h1.204V34c.01-1.035-.384-1.974-1.884-1.974l-.009-.052zm5.88 2.939l2.347-2.8h-1.387l-2.216 2.852v-5.13l-1.213.182v7.905h1.213v-2.844l2.242 2.835h1.448l-2.434-3zM167.061 18.652h1.318c.024 0 .043-.02.043-.043l-.183-3.696a.27.27 0 0 0-.27-.26h-1.466a.149.149 0 0 0-.157.147l.558 3.713c.01.08.077.14.157.14zm6.936-4.017h-1.474a.27.27 0 0 0-.262.26l-.2 3.714h1.334a.157.157 0 0 0 .148-.148l.559-3.713a.148.148 0 0 0-.105-.113zm-2.05-11.218h-3.368a.593.593 0 0 0-.628.496c0 .104-.07.209-.105.304a11.012 11.012 0 0 1-2.451 3.913v1.061c0 .12.098.218.218.218h.061l.087-.052a11.245 11.245 0 0 0 4.502-4.487 11.155 11.155 0 0 0 3.917 4.121l.079.052h.078a.218.218 0 0 0 .2-.147v-1.27a11.154 11.154 0 0 1-1.84-3.409c-.157-.382-.227-.826-.75-.8zm2.425 15.653c-.994.287-2.059.539-3.114.747v-6.226h2.852a.261.261 0 0 0 .262-.26v-.87a.261.261 0 0 0-.262-.261h-2.852v-1.887h2.18a.262.262 0 0 0 .262-.26v-.87a.26.26 0 0 0-.261-.261h-6.378a.253.253 0 0 0-.261.26v.87a.26.26 0 0 0 .261.261h2.19v1.896h-2.853a.262.262 0 0 0-.262.26v.87a.26.26 0 0 0 .262.261h2.853v6.53c-1.187.19-2.384.312-3.586.366a.261.261 0 0 0-.261.26v1.314c0 .144.117.26.261.26a28.773 28.773 0 0 0 8.629-2 .261.261 0 0 0 .192-.2v-1.034a.062.062 0 0 0-.063-.088.062.062 0 0 0-.05.035v.027zm9.178-1.096a17.7 17.7 0 0 0 1.405-3.93c.07-.41-.27-.357-.27-.357h-1.527c-.12.93-.333 1.844-.637 2.73a9.823 9.823 0 0 1-1.344-3.617h3.63a.262.262 0 0 0 .27-.26V4.408a.999.999 0 0 0-1.073-.992h-8.332a.262.262 0 0 0-.262.261V22.07c0 .148.121.27.27.27a21.583 21.583 0 0 0 5.235-1.192.26.26 0 0 0 .166-.244v-1.2s0-.07-.078-.043c-1.274.27-2.522.46-3.577.591v-7.417h1.37a15.475 15.475 0 0 0 7.18 9.495h.095a.253.253 0 0 0 .262-.243v-1.548a12.869 12.869 0 0 1-2.783-2.591v.026zm-6.107-12.957h5.627V7.34h-5.627V5.017zm0 6.261V8.913h5.636v2.348l-5.636.017zM135.226 8.678H132.4V4.757a1.132 1.132 0 0 0-1.09-1.148h-1.214a.261.261 0 0 0-.244.234v4.835h-4.222v-4.8a.252.252 0 0 0-.262-.26h-1.195a1.15 1.15 0 0 0-1.16 1.13v3.93h-3.7V4.383a.26.26 0 0 0-.261-.261h-1.196c-.63 0-1.143.51-1.143 1.139v3.417h-1.928a.21.21 0 0 0-.209.209v1.13a.208.208 0 0 0 .21.21h1.927V21.2a1.15 1.15 0 0 0 1.143 1.14h16.472a.261.261 0 0 0 .261-.262v-1.035a.26.26 0 0 0-.261-.27h-15.006V10.236h3.69v5.791a1.15 1.15 0 0 0 1.143 1.14h7.163a1.15 1.15 0 0 0 1.143-1.14v-5.791h2.765a.209.209 0 0 0 .201-.209v-1.13a.208.208 0 0 0-.2-.218zm-5.426 6.913h-4.17v-5.356h4.257l-.087 5.356zM197.867 7.957h-2.164a10.314 10.314 0 0 1-4.79 3.878s-.087.06-.096.087v1.052s-.06.47.402.313a16.31 16.31 0 0 0 1.998-.809v8.696c0 .629.511 1.139 1.143 1.139h1.195a.261.261 0 0 0 .261-.26V10.747a11.931 11.931 0 0 0 2.199-2.609c.174-.182-.148-.182-.148-.182zm0-4.548h-2.155a10.34 10.34 0 0 1-4.79 3.878s-.096.052-.096.087v1.07s-.06.469.401.313a11.74 11.74 0 0 0 6.814-5.061c.148-.313-.174-.279-.174-.279V3.41zm2.312 2.243h10.33a.21.21 0 0 0 .209-.209v-1.13a.209.209 0 0 0-.21-.209h-10.33a.209.209 0 0 0-.209.209v1.14c0 .114.094.208.21.208v-.009zm11.254 3.678h-12.52a.21.21 0 0 0-.209.21v1.138a.208.208 0 0 0 .21.209h7.162v9.243c0 .566-.166.87-1.09.87h-.934c-.06 0-.078 0-.078.06v1.105c0 .115.093.209.209.209h1.98c1.885-.052 2.513-.444 2.513-2.244v-9.234h2.722c.116 0 .21-.094.21-.209v-1.14a.209.209 0 0 0-.166-.208l-.01-.009zM74.898 16.113v.965c0 .085-.053.16-.13.192a23.122 23.122 0 0 1-3.726 1.173 21.448 21.448 0 0 1-3.342.53.209.209 0 0 1-.209-.208v-1.539c0-.115.094-.209.21-.209 2.378-.075 4.74-.419 7.04-1.026a.114.114 0 0 1 .157.122zm0-5.409v3.192a1.111 1.111 0 0 1-1.125 1.121h-5.165a1.119 1.119 0 0 1-1.126-1.121v-3.192a1.111 1.111 0 0 1 1.126-1.121h5.182a1.11 1.11 0 0 1 1.108 1.121zm-2.486.053h-2.46v3.086h2.46v-3.086zm2.468-.044v3.191a1.111 1.111 0 0 1-1.125 1.122h-5.147a1.119 1.119 0 0 1-1.126-1.122v-3.2a1.111 1.111 0 0 1 1.126-1.121h5.182a1.11 1.11 0 0 1 1.108 1.121l-.018.009zm-2.468.044h-2.46v3.086h2.46v-3.086zm2.468 6.321v-.965a.113.113 0 0 0-.157-.113c-2.3.607-4.662.951-7.04 1.026a.209.209 0 0 0-.21.209v1.53c0 .115.094.209.21.209a21.448 21.448 0 0 0 3.341-.53 23.122 23.122 0 0 0 3.726-1.174.209.209 0 0 0 .148-.192h-.018zm9.571-12.165v16.313c0 .62-.504 1.122-1.125 1.122H65.083a1.132 1.132 0 0 1-1.125-1.122V4.913a1.132 1.132 0 0 1 1.134-1.122h18.234a1.127 1.127 0 0 1 1.125 1.122zm-7.136 2.104h1.858c-.114-.8-.236-1.452-.306-1.86h-1.57c-.017.356-.017 1 .018 1.86zm-10.801 0h8.899a23.513 23.513 0 0 1-.114-1.86h-8.785v1.86zm15.38-1.86H80.7l.488 2.608c0 .574-.445.574-.445.574h-3.315a26.8 26.8 0 0 0 1.09 5.496c.358-.645.679-1.31.96-1.992a.148.148 0 0 1 .2-.078l1.31.53s.157.044.07.227a24.459 24.459 0 0 1-1.833 3.156 15.295 15.295 0 0 0 2.268 3.713.096.096 0 0 1 0 .157l-.628.73a.131.131 0 0 1-.2 0 12.483 12.483 0 0 1-2.478-3.217 12.7 12.7 0 0 1-3.49 2.991c-.13.105-.192-.06-.192-.06l-.349-.818s-.087-.122 0-.191a13.42 13.42 0 0 0 3.333-3.479 27.346 27.346 0 0 1-1.902-7.156h-9.073V21h15.38V5.157zm-6.979 5.547v3.192a1.111 1.111 0 0 1-1.125 1.121h-5.182a1.119 1.119 0 0 1-1.126-1.121v-3.192a1.111 1.111 0 0 1 1.126-1.121h5.182a1.11 1.11 0 0 1 1.108 1.121h.017zm-2.503.053h-2.46v3.086h2.46v-3.086zm2.32 5.217c-2.3.607-4.662.95-7.04 1.026a.209.209 0 0 0-.21.209v1.53c0 .115.094.209.21.209a21.448 21.448 0 0 0 3.341-.53 23.122 23.122 0 0 0 3.725-1.175.209.209 0 0 0 .131-.19v-.94a.113.113 0 0 0-.14-.122l-.017-.017zM99.893 13.791h-1.178a.253.253 0 0 0-.253.252v6.087c0 .557-.113.87-1.03.87h-.531c-.088 0-.079.07-.079.07v.982c0 .173.14.313.314.313h.969c2.198 0 2.896-.295 2.896-2.2v-5.252c0-.613-.493-1.112-1.108-1.122zm9.954-2.608H96.84c.462-.583.872-1.183 1.265-1.74h9.265c.115 0 .21-.093.21-.208V8.13a.209.209 0 0 0-.21-.208h-8.332c.358-.635.663-1.235.925-1.74h9.108c.116 0 .21-.093.21-.208V4.826a.209.209 0 0 0-.21-.209h-8.428c.088-.226.166-.417.21-.556.043-.14.06-.365-.175-.418-.497-.104-1.5-.313-1.797-.382a.359.359 0 0 0-.462.296l-.166.53c-.053.165-.114.348-.183.54h-7.52a.209.209 0 0 0-.21.208v1.113c0 .115.094.209.21.209h6.891c-.253.556-.54 1.156-.872 1.739h-4.362a.209.209 0 0 0-.21.208v1.14c0 .115.094.208.21.208h3.49a20.096 20.096 0 0 1-1.222 1.74h-4.72a.209.209 0 0 0-.209.208v1.113c0 .115.094.209.21.209h3.41a11.844 11.844 0 0 1-3.42 2.556.27.27 0 0 0-.174.409l.244.6a.261.261 0 0 0 .376.13c.795-.289 1.556-.665 2.268-1.121 1.413.403 2.796.909 4.135 1.513.157.078.218-.044.218-.044l.602-1.26a.156.156 0 0 0-.06-.235 24.664 24.664 0 0 0-3.49-1.01 17.53 17.53 0 0 0 1.64-1.53h8.13a14.24 14.24 0 0 0 1.64 1.444c-1.089.44-2.233.733-3.402.87-.113 0-.157.086-.13.217.165.504.218.87.383 1.391.053.165.131.165.245.14a16.947 16.947 0 0 0 4.187-1.74 15.323 15.323 0 0 0 2.792 1.365.271.271 0 0 0 .375-.139l.245-.6a.269.269 0 0 0-.175-.4A14.468 14.468 0 0 1 106 12.722h3.795c.116 0 .21-.094.21-.209v-1.078a.209.209 0 0 0-.166-.218l.008-.034zm-12.214 7.53c-.06-.443-.078-.391-.165-.87a.148.148 0 0 0-.21-.113 31.477 31.477 0 0 1-6.377 2.227.174.174 0 0 0-.122.26l.628 1.357a.27.27 0 0 0 .349.122 36.277 36.277 0 0 0 5.801-2.74.235.235 0 0 0 .114-.208l-.018-.035zm10.749 1.417a31.136 31.136 0 0 0-5.994-2.078c-.183-.06-.218.078-.218.078l-.375.818s-.087.174.087.235c1.8.72 3.548 1.56 5.235 2.513a.42.42 0 0 0 .523-.096c.323-.478.463-.696.785-1.183a.2.2 0 0 0-.043-.287zM160.666 4.626h-4.702a1.133 1.133 0 0 0-1.125-1.017H153.8a.261.261 0 0 0-.261.26v.757h-6.23V3.87a.261.261 0 0 0-.261-.261h-1.038a1.142 1.142 0 0 0-1.135 1.017h-4.693a.209.209 0 0 0-.21.209v1.07a.208.208 0 0 0 .21.208h4.641v.87c0 .144.117.26.262.26h1.928a.261.261 0 0 0 .262-.26v-.87h6.272v.87c0 .144.118.26.262.26h1.92a.261.261 0 0 0 .261-.26v-.87h4.685a.21.21 0 0 0 .21-.209v-1.07a.208.208 0 0 0-.219-.208zm0 8.348c.116 0 .21-.094.21-.209v-1.06a.209.209 0 0 0-.21-.21h-3.41V9.549h1.875a.209.209 0 0 0 .2-.209V8.27a.209.209 0 0 0-.2-.208h-17.449a.21.21 0 0 0-.21.209v1.07c0 .114.095.208.21.208h1.867v1.948h-3.41a.209.209 0 0 0-.202.208v1.061c0 .112.089.204.201.209h3.411v1.939h-1.867a.209.209 0 0 0-.21.209v1.07a.21.21 0 0 0 .21.2h7.503v2h-9.02a.209.209 0 0 0-.201.2v1.069c0 .112.088.204.2.209h9.021v1.365c.005.626.515 1.13 1.143 1.13h1.038a.261.261 0 0 0 .262-.26v-2.262h9.03c.115 0 .209-.093.209-.208v-1.07a.21.21 0 0 0-.21-.2h-9.02V16.41h7.494a.209.209 0 0 0 .2-.2V15.13a.209.209 0 0 0-.2-.208h-1.876v-1.94l3.411-.008zm-11.48 1.939h-3.168v-1.93h3.167v1.93zm0-3.426h-3.168v-1.94h3.167v1.94zm5.618 3.426h-3.167v-1.93h3.167v1.93zm0-3.426h-3.167v-1.94h3.167v1.94z"/>
        <path fill="#008F43" d="M47.26 17.93a4.933 4.933 0 0 1-1.475-2.921 6.674 6.674 0 0 0-4.545-5.713 6.514 6.514 0 0 1-.471-.183 4.54 4.54 0 0 1-2.094-1.87 6.82 6.82 0 0 0-6.849-3.478 4.934 4.934 0 0 1-3.21-.704 6.77 6.77 0 0 0-7.756 0 4.934 4.934 0 0 1-3.202.704 6.829 6.829 0 0 0-6.849 3.478 4.62 4.62 0 0 1-2.556 2.053 6.717 6.717 0 0 0-4.545 5.713 4.925 4.925 0 0 1-1.475 2.921A7.275 7.275 0 0 0 0 23.226v.096c.043 4.05 3.352 7.31 7.416 7.304h10.652A1.846 1.846 0 0 1 19.9 32.47v.426c0 .97-.72 1.79-1.684 1.921l-8.62 1.479a.618.618 0 0 0-.566.565v1.06h31.477v-1.06a.618.618 0 0 0-.576-.565l-8.663-1.487a1.941 1.941 0 0 1-1.684-1.922v-.426c0-1.008.812-1.83 1.823-1.844h10.67c4.096 0 7.416-3.309 7.416-7.39a7.275 7.275 0 0 0-2.234-5.297z"/>
        <path fill="url(#a)" d="M15.18 11.922c9.16-4.096 18.452-5.279 25.589-3.809a4.54 4.54 0 0 1-2.094-1.87 6.82 6.82 0 0 0-6.849-3.478 4.934 4.934 0 0 1-3.21-.704 6.77 6.77 0 0 0-7.756 0 4.934 4.934 0 0 1-3.202.704 6.829 6.829 0 0 0-6.849 3.478 4.62 4.62 0 0 1-2.556 2.053 6.717 6.717 0 0 0-4.545 5.713 4.925 4.925 0 0 1-1.475 2.921A7.275 7.275 0 0 0 0 22.226v.096a48.864 48.864 0 0 1 15.18-10.4z" transform="translate(0 1)"/>
        <path fill="url(#b)" d="M23.268 17.287C31.12 13.809 39.024 12.417 45.61 13a6.748 6.748 0 0 0-4.363-4.713 6.514 6.514 0 0 1-.47-.183c-7.146-1.46-16.437-.278-25.598 3.818A48.861 48.861 0 0 0 0 22.313c.034 3.663 2.755 6.748 6.395 7.252a47.34 47.34 0 0 1 16.873-12.278z" transform="translate(0 1)"/>
        <path fill="#008F43" d="M47.26 17.93a4.933 4.933 0 0 1-1.475-2.921 6.71 6.71 0 0 0-.174-1c-6.596-.592-14.518.782-22.343 4.287a47.34 47.34 0 0 0-16.873 12.27c.338.046.68.07 1.02.069h10.653a1.846 1.846 0 0 1 1.832 1.843v.426c0 .97-.72 1.792-1.684 1.922l-8.62 1.47a.618.618 0 0 0-.566.565v1.06h31.477v-1.06a.618.618 0 0 0-.576-.565l-8.663-1.487a1.941 1.941 0 0 1-1.684-1.922v-.426c0-1.008.812-1.83 1.823-1.844h10.67c4.096 0 7.416-3.309 7.416-7.39a7.275 7.275 0 0 0-2.234-5.297z"/>
    </g>
</svg>
